<svg xmlns="http://www.w3.org/2000/svg" viewBox="0 0 16 16" fill="none" shape-rendering="crispEdges"><desc>"Pixel Art" by "Florian Körner", licensed under "CC0 1.0". / Remix of the original. - Created with dicebear.com</desc><metadata xmlns:dc="http://purl.org/dc/elements/1.1/" xmlns:cc="http://creativecommons.org/ns#" xmlns:rdf="http://www.w3.org/1999/02/22-rdf-syntax-ns#"><rdf:RDF><cc:Work><dc:title>Pixel Art</dc:title><dc:creator><cc:Agent rdf:about="https://dicebear.com"><dc:title>Florian Körner</dc:title></cc:Agent></dc:creator><dc:source>https://www.figma.com/community/file/1198754108850888330</dc:source><cc:license rdf:resource="https://creativecommons.org/licenses/zero/1.0/" /></cc:Work></rdf:RDF></metadata><mask id="viewboxMask"><rect width="16" height="16" rx="0" ry="0" x="0" y="0" fill="#fff" /></mask><g mask="url(#viewboxMask)"><path d="M4 2h8v1h1v3h1v2h-1v3h-1v1H9v1h4v1h1v2H2v-2h1v-1h4v-1H4v-1H3V8H2V6h1V3h1V2Z" fill="#cb9e6e"/><path d="M4 2h8v1h1v3h1v2h-1v3h-1v1H4v-1H3V8H2V6h1V3h1V2Z" fill="#fff" fill-opacity=".1"/><path d="M5 13H4v3h3v-1H6v-1H5v-1ZM12 13h-1v1h-1v1H9v1h3v-3Z" fill="#88d8b0"/><path fill="#fff" fill-opacity=".5" d="M4 13h1v1H4zM5 14h1v1H5zM6 15h1v1H6zM9 15h1v1H9zM10 14h1v1h-1z"/><path fill="#fff" fill-opacity=".3" d="M11 14h1v1h-1z"/><path fill="#fff" fill-opacity=".5" d="M11 13h1v1h-1z"/><path fill="#fff" fill-opacity=".3" d="M10 15h1v1h-1zM5 15h1v1H5zM4 14h1v1H4z"/><path d="M6 5H5v2h2V6H6V5ZM11 5h-1v2h2V6h-1V5Z" fill="#fff"/><path fill="#697b94" d="M5 6h1v1H5zM10 6h1v1h-1z"/><path d="M10 11v-1H7V9H6v1h1v1h3Z" fill="#c98276"/><path d="M4 2h1v3H4zM6 2h1v2H6zM8 2h1v2H8zM10 2h1v2h-1z" fill="#612616"/><path d="M4 0h8v1h1v1h1v3H2V2h1V1h1V0Z" fill="#cc6192"/><path fill="#fff" fill-opacity=".3" d="M11 2h1v3h-1zM9 2h1v3H9z"/></g></svg>